<svg width="98" height="96" viewBox="0 0 98 96" fill="none" xmlns="http://www.w3.org/2000/svg">
<g clip-path="url(#clip0_12_3)">
<path fill-rule="evenodd" clip-rule="evenodd" d="M48.854 0C21.839 0 0 22 0 49.217C0 70.973 13.993 89.389 33.405 95.907C35.832 96.397 36.721 94.848 36.721 93.545C36.721 92.404 36.641 88.493 36.641 84.418C23.051 87.352 20.221 78.551 20.221 78.551C18.037 72.847 14.801 71.381 14.801 71.381C10.353 68.366 15.125 68.366 15.125 68.366C20.059 68.692 22.648 73.418 22.648 73.418C27.015 80.914 34.052 78.796 36.883 77.492C37.287 74.314 38.582 72.114 39.957 70.892C29.118 69.751 17.714 65.514 17.714 46.609C17.714 41.231 19.654 36.831 22.728 33.409C22.243 32.187 20.544 27.134 23.214 20.371C23.214 20.371 27.339 19.067 36.64 25.423C40.6221 24.3457 44.7288 23.7976 48.854 23.793C52.979 23.793 57.184 24.364 61.067 25.423C70.369 19.067 74.494 20.371 74.494 20.371C77.164 27.134 75.464 32.187 74.979 33.409C78.134 36.831 79.994 41.231 79.994 46.609C79.994 65.514 68.59 69.669 57.67 70.892C59.45 72.44 60.986 75.373 60.986 80.018C60.986 86.618 60.906 91.915 60.906 93.544C60.906 94.848 61.796 96.397 64.222 95.908C83.634 89.388 97.627 70.973 97.627 49.217C97.707 22 75.788 0 48.854 0Z" fill="#815CD6"/>
<g clip-path="url(#clip1_12_3)">
<path d="M55.2768 62.9836C53.8254 62.9608 52.3983 62.787 51.0183 62.332C50.387 62.1238 49.7878 61.8536 49.2599 61.4502C49.1336 61.3536 48.9787 61.3961 48.8369 61.4114C48.6813 61.4282 48.5349 61.4854 48.3988 61.5609C48.2899 61.6214 48.174 61.6762 48.08 61.7546C47.3749 62.3424 46.5179 62.5764 45.631 62.7368C43.6902 63.088 41.7491 63.0952 39.8118 62.7132C38.9303 62.5394 38.0815 62.2742 37.3125 61.808C37.1332 61.6993 36.9645 61.5769 36.807 61.4399C35.9005 60.6505 35.7435 59.538 36.408 58.5465C36.7707 58.0052 37.2597 57.6306 37.9418 57.5408C38.3365 57.4888 38.6987 57.5883 39.0389 57.7811C39.1135 57.8234 39.1055 57.8649 39.0688 57.9214C39.0038 58.0216 38.9039 58.074 38.7931 58.1136C38.5936 58.1847 38.3829 58.2086 38.1768 58.2511C37.506 58.3894 37.2971 58.7292 37.4966 59.3638C37.6642 59.8972 38.128 60.155 38.7642 60.078C39.4937 59.9898 40.1398 59.6928 40.7677 59.3476C41.4857 58.9529 42.0942 58.4195 42.7206 57.9091C43.3785 57.3729 44.0409 56.8428 44.8128 56.4601C45.4647 56.1367 46.1508 55.9586 46.8904 56.0082C47.5147 56.05 48.0897 56.2456 48.6296 56.5398C48.7524 56.6067 48.8413 56.6138 48.9704 56.5496C49.8071 56.1338 50.6902 55.9292 51.6368 56.0389C52.3682 56.1236 53.0367 56.3806 53.6724 56.7274C54.4733 57.1642 55.1845 57.7217 55.905 58.2673C56.4473 58.678 56.9936 59.0839 57.5457 59.4821C57.8852 59.7271 58.2509 59.9311 58.6639 60.0441C59.2318 60.1993 59.7308 60.0789 60.152 59.6844C60.3303 59.5174 60.528 59.3548 60.5773 59.0996C60.6525 58.7106 60.4922 58.4606 60.0999 58.3444C59.8489 58.27 59.5862 58.2523 59.3313 58.1965C59.2231 58.1729 59.119 58.1394 59.0171 58.0963C58.9196 58.0551 58.9075 58.0092 58.9677 57.9212C59.2237 57.5463 59.6534 57.4032 60.1506 57.5352C61.0559 57.7756 61.9388 58.7948 61.9959 59.6989C62.0332 60.2887 61.8121 60.8036 61.4097 61.2449C60.9527 61.746 60.3678 62.0627 59.7357 62.307C58.8412 62.6527 57.9049 62.8237 56.9507 62.9174C56.3942 62.972 55.8361 62.9897 55.2768 62.9836Z" fill="#815CD6"/>
</g>
<circle cx="37.6439" cy="46.1957" r="7.39154" stroke="#815CD6" stroke-width="2"/>
<circle cx="60.3521" cy="46.1957" r="7.39154" stroke="#815CD6" stroke-width="2"/>
<path d="M44.9866 45.3065C44.9866 40.2147 53.0063 40.495 53.0063 45.3065" stroke="#815CD6" stroke-width="2"/>
<path d="M29.7829 46.1955H27.9954M68.273 46.1955H70.0048" stroke="#815CD6" stroke-width="2"/>
</g>
<defs>
<clipPath id="clip0_12_3">
<rect width="98" height="96" fill="white"/>
</clipPath>
<clipPath id="clip1_12_3">
<rect width="26" height="7" fill="white" transform="translate(36 56)"/>
</clipPath>
</defs>
</svg>
