<svg width="48" height="48" viewBox="0 0 48 48" fill="none" xmlns="http://www.w3.org/2000/svg">
<g clip-path="url(#clip0_7_3)">
<path d="M31.4374 48V39.5054C31.5198 38.4587 31.3784 37.4065 31.0226 36.4187C30.6669 35.431 30.1049 34.5302 29.3741 33.7764C36.2664 33.0082 43.5099 30.3961 43.5099 18.4114C43.5094 15.3468 42.3305 12.3997 40.2174 10.1802C41.218 7.49897 41.1473 4.53538 40.0199 1.905C40.0199 1.905 37.4298 1.13675 31.4374 5.1536C26.4065 3.79012 21.1033 3.79012 16.0724 5.1536C10.0801 1.13675 7.48998 1.905 7.48998 1.905C6.36257 4.53538 6.29182 7.49897 7.29242 10.1802C5.16355 12.4162 3.98351 15.3899 3.99992 18.4773C3.99992 30.3742 11.2434 32.9862 18.1357 33.8423C17.4136 34.5885 16.8566 35.4784 16.5011 36.4541C16.1456 37.4298 15.9996 38.4695 16.0724 39.5054V48" fill="#F8F8F2"/>
<path d="M31.4374 48V39.5054C31.5198 38.4587 31.3784 37.4065 31.0226 36.4187C30.6669 35.431 30.1049 34.5302 29.3741 33.7764C36.2664 33.0082 43.5099 30.3961 43.5099 18.4114C43.5094 15.3468 42.3305 12.3997 40.2174 10.1802C41.218 7.49897 41.1473 4.53538 40.0199 1.905C40.0199 1.905 37.4298 1.13675 31.4374 5.1536C26.4065 3.79012 21.1033 3.79012 16.0724 5.1536C10.0801 1.13675 7.48998 1.905 7.48998 1.905C6.36257 4.53538 6.29182 7.49897 7.29242 10.1802C5.16355 12.4162 3.98351 15.3899 3.99992 18.4773C3.99992 30.3742 11.2434 32.9862 18.1357 33.8423C17.4136 34.5885 16.8566 35.4784 16.5011 36.4541C16.1456 37.4298 15.9996 38.4695 16.0724 39.5054V48" stroke="black" stroke-width="2"/>
<path d="M16.0729 41.415C12.2774 42.5536 9.79457 42.2485 7.98877 41.3165" stroke="black" stroke-width="2"/>
<path d="M7.98844 41.3167C4.5725 39.5538 3.57936 35.5481 0.70752 34.8301" stroke="black" stroke-width="2"/>
<path d="M24.0001 19.4833C26.7054 16.6612 29.4107 13.839 32.8776 15.4242C37.7805 17.666 37.7805 21.3007 32.8776 23.5425C29.4107 25.1277 26.7054 22.3055 24.0001 19.4833C21.2947 22.3055 18.5894 25.1277 15.1225 23.5425C10.2196 21.3007 10.2196 17.666 15.1225 15.4242C18.5894 13.839 21.2947 16.6612 24.0001 19.4833Z" fill="#F8F8F2"/>
<path d="M32.8776 15.4242C25.9438 12.2538 22.0563 26.7129 15.1225 23.5425C10.2196 21.3007 10.2196 17.666 15.1225 15.4242C22.0563 12.2538 25.9438 26.7129 32.8776 23.5425C37.7805 21.3007 37.7805 17.666 32.8776 15.4242Z" stroke="black" stroke-width="2"/>
</g>
<defs>
<clipPath id="clip0_7_3">
<rect width="48" height="48" fill="white"/>
</clipPath>
</defs>
</svg>
