<svg width="16" height="16" viewBox="0 0 16 16" fill="none" xmlns="http://www.w3.org/2000/svg">
<g clip-path="url(#clip0_7_2)">
<path d="M10.7598 16V13.1864C10.7871 12.8397 10.7402 12.4912 10.6224 12.1641C10.5046 11.8369 10.3184 11.5386 10.0764 11.2889C12.3592 11.0344 14.7584 10.1693 14.7584 6.19968C14.7582 5.18462 14.3678 4.2085 13.6679 3.47333C13.9993 2.58527 13.9759 1.60366 13.6025 0.732431C13.6025 0.732431 12.7446 0.477971 10.7598 1.80843C9.09344 1.35682 7.33693 1.35682 5.67058 1.80843C3.6858 0.477971 2.82791 0.732431 2.82791 0.732431C2.45449 1.60366 2.43105 2.58527 2.76247 3.47333C2.05735 4.21395 1.66649 5.1989 1.67193 6.22149C1.67193 10.162 4.07112 11.0271 6.35399 11.3107C6.1148 11.5579 5.93032 11.8526 5.81258 12.1758C5.69483 12.499 5.64645 12.8433 5.67058 13.1864V16" fill="#D9D9D9"/>
<path d="M10.7598 16V13.1864C10.7871 12.8397 10.7402 12.4912 10.6224 12.1641C10.5046 11.8369 10.3184 11.5386 10.0764 11.2889C12.3592 11.0344 14.7584 10.1693 14.7584 6.19968C14.7582 5.18462 14.3678 4.2085 13.6679 3.47333C13.9993 2.58527 13.9759 1.60366 13.6025 0.732431C13.6025 0.732431 12.7446 0.477971 10.7598 1.80843C9.09344 1.35682 7.33693 1.35682 5.67058 1.80843C3.6858 0.477971 2.82791 0.732431 2.82791 0.732431C2.45449 1.60366 2.43105 2.58527 2.76247 3.47333C2.05735 4.21395 1.66649 5.1989 1.67193 6.22149C1.67193 10.162 4.07112 11.0271 6.35399 11.3107C6.1148 11.5579 5.93032 11.8526 5.81258 12.1758C5.69483 12.499 5.64645 12.8433 5.67058 13.1864V16" stroke="black"/>
<path d="M5.67065 13.8189C4.41353 14.1961 3.59116 14.095 2.99304 13.7863" stroke="black"/>
<path d="M2.99301 13.7863C1.86158 13.2024 1.53263 11.8757 0.581421 11.6379" stroke="black"/>
<path d="M8.21368 6.50401C9.10974 5.56924 10.0058 4.63448 11.1541 5.15953C12.7781 5.90206 12.7781 7.10595 11.1541 7.84848C10.0058 8.37353 9.10974 7.43877 8.21368 6.50401C7.31763 7.43877 6.42157 8.37353 5.27326 7.84848C3.64931 7.10595 3.64931 5.90206 5.27326 5.15953C6.42157 4.63448 7.31763 5.56924 8.21368 6.50401Z" fill="#D9D9D9"/>
<path d="M11.1541 5.15953C8.85749 4.10942 7.56987 8.89859 5.27326 7.84848C3.64931 7.10595 3.64931 5.90206 5.27326 5.15953C7.56987 4.10942 8.85749 8.89859 11.1541 7.84848C12.7781 7.10595 12.7781 5.90206 11.1541 5.15953Z" stroke="black"/>
</g>
<defs>
<clipPath id="clip0_7_2">
<rect width="16" height="16" fill="white"/>
</clipPath>
</defs>
</svg>
